HIERARCHY
ROOT Bip001_Pelvis
{
  OFFSET 33.2923 95.8902 -28.781
  CHANNELS 6 Xposition Yposition Zposition Zrotation Xrotation Yrotation
  JOINT Bip001_Spine
  {
    OFFSET 1.4188e-005 10.2191 -0.0116013
    CHANNELS 3 Zrotation Xrotation Yrotation
    JOINT Bip001_L_Thigh
    {
      OFFSET 11.0458 -10.2192 0.0116197
      CHANNELS 3 Zrotation Xrotation Yrotation
      JOINT Bip001_L_Calf
      {
        OFFSET -0.707118 -44.0221 0.360014
        CHANNELS 3 Zrotation Xrotation Yrotation
        JOINT Bip001_L_Foot
        {
          OFFSET -0.651902 -40.5938 -3.56146
          CHANNELS 3 Zrotation Xrotation Yrotation
          JOINT Bip001_L_Toe0
          {
            OFFSET 0.0530839 -10.2181 13.1504
            CHANNELS 3 Zrotation Xrotation Yrotation
            End Site
            {
              OFFSET -1.02532e-005 0 7.55606
            }
          }
        }
      }
    }
    JOINT Bip001_R_Thigh
    {
      OFFSET -11.0458 -10.2191 0.0115893
      CHANNELS 3 Zrotation Xrotation Yrotation
      JOINT Bip001_R_Calf
      {
        OFFSET 0.706994 -44.0221 0.35984
        CHANNELS 3 Zrotation Xrotation Yrotation
        JOINT Bip001_R_Foot
        {
          OFFSET 0.651786 -40.5938 -3.5613
          CHANNELS 3 Zrotation Xrotation Yrotation
          JOINT Bip001_R_Toe0
          {
            OFFSET -0.0531479 -10.2181 13.1504
            CHANNELS 3 Zrotation Xrotation Yrotation
            End Site
            {
              OFFSET -1.02894e-005 0 7.55606
            }
          }
        }
      }
    }
    JOINT Bip001_Spine1
    {
      OFFSET 1.87041e-005 14.5736 1.08638
      CHANNELS 3 Zrotation Xrotation Yrotation
      JOINT Bip001_Spine2
      {
        OFFSET 2.24614e-005 14.5058 -1.69078
        CHANNELS 3 Zrotation Xrotation Yrotation
        JOINT Bip001_Neck
        {
          OFFSET 2.20278e-005 15.3945 -0.489414
          CHANNELS 3 Zrotation Xrotation Yrotation
          JOINT Bip001_L_Clavicle
          {
            OFFSET 6.06036 -0.000579998 0.00836775
            CHANNELS 3 Zrotation Xrotation Yrotation
            JOINT Bip001_L_UpperArm
            {
              OFFSET 11.5509 -0.0600302 0.00193952
              CHANNELS 3 Zrotation Xrotation Yrotation
              JOINT Bip001_L_Forearm
              {
                OFFSET 25.9523 0.0806089 -2.15551
                CHANNELS 3 Zrotation Xrotation Yrotation
                JOINT Bip001_L_Hand
                {
                  OFFSET 32.2476 0.153767 1.63968
                  CHANNELS 3 Zrotation Xrotation Yrotation
                  JOINT Bip001_L_Finger0
                  {
                    OFFSET 6.04639 -2.20976 5.90322
                    CHANNELS 3 Zrotation Xrotation Yrotation
                    End Site
                    {
                      OFFSET 4.22376 -1.43895 0.606486
                    }
                  }
                  JOINT Bip001_L_Finger1
                  {
                    OFFSET 11.0826 -0.704819 -0.198153
                    CHANNELS 3 Zrotation Xrotation Yrotation
                    End Site
                    {
                      OFFSET 6.20028 -0.397518 -0.0787166
                    }
                  }
                }
              }
            }
          }
          JOINT Bip001_R_Clavicle
          {
            OFFSET -6.06036 -0.000563197 0.00835105
            CHANNELS 3 Zrotation Xrotation Yrotation
            JOINT Bip001_R_UpperArm
            {
              OFFSET -11.5509 -0.0599978 0.00190698
              CHANNELS 3 Zrotation Xrotation Yrotation
              JOINT Bip001_R_Forearm
              {
                OFFSET -25.9523 0.080682 -2.1559
                CHANNELS 3 Zrotation Xrotation Yrotation
                JOINT Bip001_R_Hand
                {
                  OFFSET -32.2476 0.153858 1.63991
                  CHANNELS 3 Zrotation Xrotation Yrotation
                  JOINT Bip001_R_Finger0
                  {
                    OFFSET -6.04641 -2.20974 5.90321
                    CHANNELS 3 Zrotation Xrotation Yrotation
                    End Site
                    {
                      OFFSET -4.22376 -1.43894 0.606474
                    }
                  }
                  JOINT Bip001_R_Finger1
                  {
                    OFFSET -11.0826 -0.704789 -0.198184
                    CHANNELS 3 Zrotation Xrotation Yrotation
                    End Site
                    {
                      OFFSET -6.20028 -0.397501 -0.0787338
                    }
                  }
                }
              }
            }
          }
          JOINT Bip001_Head
          {
            OFFSET 1.09673e-005 11.2744 2.05948
            CHANNELS 3 Zrotation Xrotation Yrotation
            End Site
            {
              OFFSET 2.89576e-005 20.8808 -2.77728e-005
            }
          }
        }
      }
    }
  }
}
MOTION
Frames:	10
Frame Time:	0.04
32.2278 95.8537 -27.3906 1.20593 -0.628229 2.41214 -0.258138 2.95167 0.045283 4.60764 -2.55853 7.49718 -0.164191 6.37768 -13.0277 2.00688 -3.5618 -0.0338553 -3.94744 -2.86598 5.69522 -3.63283 -3.04263 -6.60059 -0.631948 11.3005 0.970486 -4.97505 -11.2908 5.06736 1.96026 -7.06412 2.47894 -0.52863 5.90089 0.10434 -0.528613 5.9009 0.104167 1.73341 2.63422 -4.31898 -25.6671 -1.34384 -3.32279 -48.9186 40.4719 -2.78098 12.0522 -0.723731 -25.1563 8.1202 1.14517 -1.73649 -3.18055e-015 -6.36111e-015 -0 -0 -6.36111e-015 -0 28.2966 5.97367 18.5155 47.1636 46.6752 4.21886 -5.68348 19.1287 1.67911 4.24533 5.34091 1.76107 -7.95139e-016 9.93923e-017 -6.98852e-016 7.95139e-016 4.96962e-017 5.9946e-016 0.287574 11.1784 -3.73725 
32.2421 95.8595 -27.3911 1.20202 -0.626035 2.41214 -0.255029 2.95167 -0.0150965 4.61224 -2.55863 7.47941 -0.199975 6.37884 -12.9819 2.22114 -3.37305 -0.036995 -3.85572 -3.02429 5.59262 -3.62457 -3.03088 -6.54813 -0.635376 11.2477 0.975485 -4.9781 -11.2656 5.06298 1.96026 -7.06412 2.47894 -0.516168 5.90056 -0.0168776 -0.516169 5.90057 -0.0168793 1.61528 2.61812 -4.19566 -25.497 -1.31754 -3.27985 -49.2119 40.0529 -2.48774 12.196 -0.349794 -25.3825 8.23862 1.11398 -1.92679 -3.18055e-015 3.18055e-015 -0 -6.36111e-015 3.18056e-015 3.18055e-015 28.5871 5.63779 17.4928 48.817 44.8851 2.53899 -5.63936 19.4804 1.69879 4.35568 5.60314 1.3689 -1.59028e-015 3.97569e-016 1.09332e-015 -1.59028e-015 1.19271e-015 1.04362e-015 0.499152 11.2316 -3.71833 
32.2464 95.8629 -27.4146 1.15481 -0.619043 2.40561 -0.244803 2.95166 -0.081879 4.65069 -2.59528 7.43323 -0.21911 6.41541 -12.8169 2.17472 -3.42925 -0.0384891 -3.85659 -2.98288 5.5981 -3.57473 -3.03808 -6.38498 -0.646574 11.1886 0.994483 -4.99781 -11.2049 4.98925 1.95991 -7.05599 2.4789 -0.485762 5.90366 -0.151425 -0.485718 5.90366 -0.151425 1.55614 2.64674 -4.16478 -25.5917 -1.33877 -3.25578 -49.1003 40.1119 -2.2323 12.271 -0.181531 -25.6089 8.4081 0.835453 -2.0812 3.18055e-015 0 -0 3.18055e-015 -3.18056e-015 -0 28.6388 5.15772 16.3075 49.5589 42.2579 1.84388 -5.35227 20.2337 1.97448 3.48171 4.65942 2.19145 4.41391e-032 3.18055e-015 -7.95139e-016 2.75869e-032 1.59028e-015 -9.93923e-016 0.484427 11.2293 -3.70028 
32.2511 95.8518 -27.4565 1.09216 -0.649828 2.24613 -0.233727 2.97761 -0.102829 4.67234 -2.61928 7.57298 -0.198823 6.46522 -12.8684 2.53477 -3.25859 -0.0395724 -3.77279 -3.20573 5.51893 -3.537 -3.10283 -5.92007 -0.550747 11.2127 0.968623 -5.08734 -11.1615 4.75964 1.95964 -7.04975 2.4789 -0.463211 5.95564 -0.196128 -0.463223 5.95563 -0.195946 1.70209 2.71081 -4.23083 -25.6824 -1.3704 -3.43935 -49.1347 40.388 -2.08845 12.1805 -0.607351 -25.5748 8.22628 0.866864 -1.90299 -3.18055e-015 3.18055e-015 -3.18055e-015 -6.36111e-015 3.18056e-015 -3.18055e-015 28.4156 4.73647 15.4218 49.7123 39.9915 1.76477 -5.44221 19.5647 2.68777 0.495033 2.72801 3.50628 3.31043e-032 -3.18055e-015 5.96354e-016 5.51738e-033 -1.59028e-015 1.98785e-016 0.243277 11.1565 -3.6438 
32.2414 95.8524 -27.5131 0.987368 -0.719787 1.89812 -0.226602 3.0198 -0.103676 4.75105 -2.62111 7.51657 -0.20397 6.57294 -12.5337 2.6573 -3.20363 -0.0405329 -3.71819 -3.31973 5.50855 -3.45345 -3.17062 -5.16564 -0.422025 11.1764 0.848274 -5.16342 -11.0485 4.51007 1.96239 -7.05421 2.4997 -0.447118 6.03993 -0.198529 -0.447143 6.03996 -0.198103 1.86696 2.75998 -4.27477 -25.7794 -1.37141 -3.66855 -49.1477 40.5584 -2.09509 12.0918 -0.850842 -25.3342 8.11194 0.828511 -1.80731 3.18055e-015 -3.18055e-015 -0 3.18055e-015 -6.36111e-015 -0 28.4255 4.49761 14.837 49.7724 39.3764 1.11694 -7.07586 16.0502 4.94557 -0.580079 2.72673 4.27445 1.98785e-016 -3.18055e-015 -1.98785e-016 -5.51738e-032 -3.18056e-015 -9.93923e-016 0.0194762 11.1173 -3.56201 
32.2271 95.856 -27.5998 0.781835 -0.745374 1.66796 -0.194463 3.04819 -0.130436 4.87867 -2.81798 7.4762 -0.0943293 6.92 -12.2853 2.74625 -3.28582 -0.041646 -3.71905 -3.38346 5.49649 -3.32141 -3.14262 -4.8723 -0.297279 10.9002 0.693192 -5.08794 -10.9041 4.62939 1.93757 -6.94624 2.44877 -0.382708 6.09699 -0.250434 -0.382705 6.09694 -0.25055 2.03679 2.78231 -4.35214 -25.8918 -1.35825 -3.87727 -49.1335 40.6271 -2.12539 11.9248 -1.08457 -25.1742 8.03058 0.931637 -1.65247 3.18055e-015 0 3.18055e-015 6.36111e-015 3.18056e-015 -0 28.41 4.37583 14.4928 49.5252 39.6405 0.873234 -8.82756 8.75567 7.44839 -1.61943 2.37077 3.70316 3.97569e-016 -3.18055e-015 -3.97569e-016 -3.97569e-016 0 -1.39149e-015 -0.27903 11.1786 -3.4979 
32.1136 95.8612 -27.7781 0.333417 -0.520566 1.73767 -0.0968547 3.02294 -0.221948 5.37592 -3.51703 6.54549 -0.276398 7.67043 -11.3451 2.84817 -3.51776 -0.0431879 -3.72524 -3.41496 5.5352 -2.89125 -3.19742 -4.59569 -0.222537 10.3322 0.498082 -5.0704 -10.5551 4.5811 1.91711 -6.88379 2.42965 -0.182388 6.0462 -0.439684 -0.182389 6.04621 -0.439685 2.28925 2.84022 -4.51928 -26.0647 -1.39563 -4.1033 -49.1635 40.7704 -2.08919 11.8757 -1.2333 -25.102 7.85628 0.853092 -1.64929 1.76556e-031 -6.36111e-015 1.59028e-015 -3.18055e-015 -9.54167e-015 1.59028e-015 28.2111 4.2467 14.2747 48.7959 40.4008 1.62976 -10.117 2.88631 9.35033 -2.74183 2.84202 2.80071 1.59028e-015 -6.36111e-015 -7.95139e-016 7.95139e-016 -1.59028e-014 -1.59028e-015 -0.736482 11.2121 -3.43011 
32.0951 95.8659 -27.888 0.164912 -0.514278 1.43628 -0.0703069 3.03339 -0.234334 5.50251 -3.61107 6.12992 -0.333714 7.77942 -10.6671 3.144 -3.33165 -0.0556542 -3.58167 -3.67122 5.419 -2.78107 -3.27942 -4.0053 -0.0655969 10.187 0.424612 -5.10095 -10.3774 4.38733 1.90692 -6.84984 2.4135 -0.130484 6.06704 -0.467712 -0.130478 6.06705 -0.467822 2.41426 2.83227 -4.59866 -26.1057 -1.35926 -4.27777 -49.1748 41.0106 -2.10442 11.9059 -1.35096 -25.0984 7.88196 0.878342 -1.67305 -9.54166e-015 -6.36111e-015 -0 -9.54166e-015 -6.36111e-015 3.18055e-015 28.0851 4.29783 14.3857 47.892 40.8165 2.63796 -11.5689 0.872154 11.059 -4.85256 2.90057 2.34583 4.41391e-032 -3.18055e-015 7.95139e-016 1.59028e-015 0 -7.95139e-016 -1.00407 11.2769 -3.38209 
32.1062 95.8655 -27.9843 0.0930221 -0.530158 1.08534 -0.0599099 3.04284 -0.233544 5.47307 -3.6192 6.10601 -0.23754 7.801 -10.3984 3.34302 -3.16877 -0.0621201 -3.55233 -3.84752 5.39632 -2.78698 -3.37158 -3.50851 0.0809219 10.145 0.409227 -5.11415 -10.2915 4.29545 1.88731 -6.76989 2.37128 -0.10702 6.08235 -0.469608 -0.10713 6.08236 -0.469768 2.4311 2.78486 -4.59102 -26.1154 -1.26366 -4.43495 -49.0854 41.2063 -2.234 12.0008 -1.30699 -25.1025 7.86211 0.904285 -1.7527 -3.18055e-015 -3.18055e-015 -0 0 6.36111e-015 -0 27.9881 4.3565 14.462 46.7792 40.4487 3.90075 -13.019 -0.124691 13.0051 -6.16188 3.2364 2.53214 4.77083e-015 -6.36111e-015 -0 -8.82782e-032 -3.18056e-015 -1.59028e-015 -1.05015 11.3861 -3.35488 
32.1309 95.8743 -28.0712 0.0471511 -0.544468 0.814898 -0.0518399 3.04874 -0.215116 5.4592 -3.64191 5.84673 -0.220078 7.84389 -9.96152 3.20228 -3.24362 -0.0653842 -3.66535 -3.75941 5.51462 -2.80536 -3.45522 -3.10649 0.182579 10.1048 0.389617 -5.12648 -10.1908 4.18092 1.87799 -6.7476 2.35624 -0.0872759 6.10292 -0.428674 -0.0872707 6.10294 -0.428568 2.46366 2.6852 -4.65058 -26.1759 -1.12356 -4.59878 -48.7828 41.3315 -2.52595 12.0444 -1.20635 -25.1202 7.80212 0.906027 -1.85537 3.18055e-015 -3.18055e-015 -0 1.76556e-031 -3.18056e-015 3.18055e-015 27.899 4.4881 14.5467 45.3315 40.1832 5.19271 -14.3583 0.0433412 14.8506 -7.97235 2.87282 3.15632 0 0 -0 -3.18055e-015 -3.18056e-015 -1.59028e-015 -1.02324 11.4565 -3.41084 
